<svg width="42" height="42" viewBox="0 0 42 42" fill="none" xmlns="http://www.w3.org/2000/svg">
<mask id="path-1-inside-1" fill="white">
<path fill-rule="evenodd" clip-rule="evenodd" d="M2 20.5C6.18029 14.7433 12.9646 11 20.6233 11C28.2819 11 35.0662 14.7433 39.2465 20.5C35.0662 26.2567 28.2819 30 20.6233 30C12.9646 30 6.18029 26.2567 2 20.5Z"/>
</mask>
<path d="M2 20.5L0.381669 19.3248L-0.471682 20.5L0.381669 21.6752L2 20.5ZM39.2465 20.5L40.8648 21.6752L41.7182 20.5L40.8648 19.3248L39.2465 20.5ZM3.61833 21.6752C7.43854 16.4143 13.6321 13 20.6233 13V9C12.2972 9 4.92206 13.0722 0.381669 19.3248L3.61833 21.6752ZM20.6233 13C27.6144 13 33.808 16.4143 37.6282 21.6752L40.8648 19.3248C36.3245 13.0722 28.9493 9 20.6233 9V13ZM37.6282 19.3248C33.808 24.5857 27.6144 28 20.6233 28V32C28.9493 32 36.3245 27.9278 40.8648 21.6752L37.6282 19.3248ZM20.6233 28C13.6321 28 7.43853 24.5857 3.61833 19.3248L0.381669 21.6752C4.92206 27.9278 12.2972 32 20.6233 32V28Z" fill="white" mask="url(#path-1-inside-1)"/>
<circle cx="21.1233" cy="20.5" r="8.5" stroke="white" stroke-width="2"/>
<circle cx="20.6233" cy="20" r="3" stroke="white" stroke-width="2"/>
<rect x="20.6233" y="2" width="2" height="5" rx="1" fill="#2A4BF6"/>
<rect x="29.1233" y="3" width="2" height="5" rx="1" transform="rotate(30 29.1233 3)" fill="#2A4BF6"/>
<rect width="2" height="5" rx="1" transform="matrix(-0.866025 0.5 0.5 0.866025 13.3553 3)" fill="#2A4BF6"/>
<rect width="2" height="5" rx="1" transform="matrix(1 0 0 -1 20.6233 39.3301)" fill="#2A4BF6"/>
<rect width="2" height="5" rx="1" transform="matrix(0.866025 -0.5 -0.5 -0.866025 29.1233 38.3301)" fill="#2A4BF6"/>
<rect x="13.3553" y="38.3301" width="2" height="5" rx="1" transform="rotate(-150 13.3553 38.3301)" fill="#2A4BF6"/>
</svg>
