<svg width="42" height="42" viewBox="0 0 42 42" fill="none" xmlns="http://www.w3.org/2000/svg">
<mask id="path-1-inside-1" fill="white">
<path fill-rule="evenodd" clip-rule="evenodd" d="M14.27 5C13.1654 5 12.27 5.89543 12.27 7V20.5H8.00198C7.12471 20.5 6.67262 21.549 7.27509 22.1867L20.5431 36.2306C20.9377 36.6483 21.6023 36.6483 21.9969 36.2306L35.2649 22.1867C35.8673 21.5491 35.4153 20.5 34.538 20.5H30.27V7C30.27 5.89543 29.3746 5 28.27 5H14.27Z"/>
</mask>
<path d="M12.27 20.5V22.5H14.27V20.5H12.27ZM7.27509 22.1867L5.82128 23.5602H5.82129L7.27509 22.1867ZM20.5431 36.2306L21.9969 34.8571H21.9969L20.5431 36.2306ZM21.9969 36.2306L20.5431 34.8571L20.5431 34.8571L21.9969 36.2306ZM35.2649 22.1867L33.8111 20.8133L33.8111 20.8133L35.2649 22.1867ZM30.27 20.5H28.27V22.5H30.27V20.5ZM14.27 7V7V3C12.0608 3 10.27 4.79086 10.27 7H14.27ZM14.27 20.5V7H10.27V20.5H14.27ZM12.27 18.5H8.00198V22.5H12.27V18.5ZM8.00198 18.5C5.37014 18.5 4.0139 21.6472 5.82128 23.5602L8.72889 20.8133C9.33134 21.4509 8.87927 22.5 8.00198 22.5V18.5ZM5.82129 23.5602L19.0893 37.6041L21.9969 34.8571L8.72889 20.8133L5.82129 23.5602ZM19.0893 37.6041C20.2731 38.8571 22.2669 38.8571 23.4507 37.6041L20.5431 34.8571C20.9377 34.4394 21.6023 34.4394 21.9969 34.8571L19.0893 37.6041ZM23.4507 37.6041L36.7187 23.5602L33.8111 20.8133L20.5431 34.8571L23.4507 37.6041ZM36.7187 23.5602C38.5261 21.6472 37.1698 18.5 34.538 18.5V22.5C33.6607 22.5 33.2086 21.4509 33.8111 20.8133L36.7187 23.5602ZM34.538 18.5H30.27V22.5H34.538V18.5ZM28.27 7V20.5H32.27V7H28.27ZM28.27 7H32.27C32.27 4.79086 30.4791 3 28.27 3V7ZM14.27 7H28.27V3H14.27V7Z" fill="white" mask="url(#path-1-inside-1)"/>
<path d="M21.9271 20.8333H18.8125C18.364 20.8333 18 20.4693 18 20.0208C18 19.5723 18.364 19.2083 18.8125 19.2083H21.9271C22.4492 19.2083 22.875 18.7826 22.875 18.2604C22.875 17.7382 22.4492 17.3125 21.9271 17.3125H20.5729C19.1537 17.3125 18 16.1587 18 14.7396C18 13.3204 19.1537 12.1667 20.5729 12.1667H23.6875C24.136 12.1667 24.5 12.5307 24.5 12.9792C24.5 13.4277 24.136 13.7917 23.6875 13.7917H20.5729C20.0507 13.7917 19.625 14.2174 19.625 14.7396C19.625 15.2617 20.0507 15.6875 20.5729 15.6875H21.9271C23.3462 15.6875 24.5 16.8412 24.5 18.2604C24.5 19.6796 23.3462 20.8333 21.9271 20.8333Z" fill="white"/>
<path d="M21.25 23C20.8015 23 20.4375 22.636 20.4375 22.1875V20.0208C20.4375 19.5723 20.8015 19.2083 21.25 19.2083C21.6985 19.2083 22.0625 19.5723 22.0625 20.0208V22.1875C22.0625 22.636 21.6985 23 21.25 23Z" fill="white"/>
<path d="M21.25 13.7917C20.8015 13.7917 20.4375 13.4277 20.4375 12.9792V10.8125C20.4375 10.364 20.8015 10 21.25 10C21.6985 10 22.0625 10.364 22.0625 10.8125V12.9792C22.0625 13.4277 21.6985 13.7917 21.25 13.7917Z" fill="white"/>
</svg>
