<svg width="32" height="32" viewBox="0 0 32 32" fill="none" xmlns="http://www.w3.org/2000/svg">
<path fill-rule="evenodd" clip-rule="evenodd" d="M9.04138 23H4L3 26H10V29H2L1 32H30L29 29H21V26H28L27 23H21.9586C21.2395 23.6784 20.47 24.3793 19.6581 25.1188C18.3688 26.2933 16.9724 27.5653 15.5 29C14.0276 27.5653 12.6312 26.2933 11.3419 25.1188C10.53 24.3793 9.7605 23.6784 9.04138 23Z" fill="#CCDFE7"/>
<path fill-rule="evenodd" clip-rule="evenodd" d="M18.9929 22.6541C23.164 18.7548 26 16.1036 26 11.5C26 5.70102 21.299 1 15.5 1C9.70099 1 5 5.70102 5 11.5C5 16.1036 7.836 18.7548 12.0071 22.6541C13.0901 23.6666 14.2632 24.7632 15.5 26C16.7368 24.7632 17.9099 23.6666 18.9929 22.6541ZM15.5 15C17.433 15 19 13.433 19 11.5C19 9.56702 17.433 8 15.5 8C13.567 8 12 9.56702 12 11.5C12 13.433 13.567 15 15.5 15Z" fill="#7B97A3"/>
</svg>
