<svg width="19" height="19" viewBox="0 0 19 19" fill="none" xmlns="http://www.w3.org/2000/svg">
<path d="M0.396594 3.53118C3.00427 5.7396 7.57993 9.62487 8.92477 10.8363C9.10531 10.9998 9.29895 11.0829 9.49997 11.0829C9.70058 11.0829 9.89388 11.0006 10.074 10.8379C11.42 9.62524 15.9957 5.7396 18.6034 3.53118C18.7657 3.39395 18.7905 3.15274 18.659 2.98497C18.3552 2.59729 17.9022 2.375 17.4166 2.375H1.58331C1.09781 2.375 0.644744 2.59729 0.340929 2.985C0.209488 3.15274 0.23424 3.39395 0.396594 3.53118Z" fill="#7B97A3"/>
<path d="M18.7704 4.72796C18.6301 4.66265 18.465 4.68543 18.3483 4.78518C15.4564 7.2367 11.7656 10.379 10.6044 11.4254C9.95262 12.0137 9.04808 12.0137 8.39481 11.4246C7.15706 10.3094 3.01239 6.78597 0.651715 4.78514C0.534189 4.68539 0.368756 4.66339 0.229596 4.72792C0.0896934 4.7929 0 4.93284 0 5.08707V15.0416C0 15.9149 0.710088 16.625 1.58335 16.625H17.4167C18.2899 16.625 19 15.9149 19 15.0416V5.08707C19 4.93284 18.9103 4.79253 18.7704 4.72796Z" fill="#7B97A3"/>
</svg>
