<svg width="19" height="19" viewBox="0 0 19 19" fill="none" xmlns="http://www.w3.org/2000/svg">
<path d="M17.5 12.51C16.328 12.51 15.18 12.327 14.092 11.968C13.561 11.785 12.958 11.926 12.609 12.282L10.452 13.911C7.97701 12.59 6.393 11.007 5.09002 8.55001L6.675 6.44401C7.07401 6.045 7.21702 5.46099 7.04602 4.914C6.68401 3.819 6.50002 2.67 6.50002 1.5C6.50002 0.672985 5.82704 0 5.00002 0H1.5C0.672985 0 0 0.672985 0 1.5C0 11.149 7.85101 19 17.5 19C18.327 19 19 18.327 19 17.5V14.01C19 13.183 18.327 12.51 17.5 12.51Z" fill="#7B97A3"/>
</svg>
